<svg xmlns="http://www.w3.org/2000/svg" xmlns:xlink="http://www.w3.org/1999/xlink" viewBox="0 0 92.66 24.14"><defs><style>.cls-1{fill:#254684;}.cls-2{fill:url(#linear-gradient);}.cls-3{fill:url(#linear-gradient-2);}.cls-4{fill:url(#linear-gradient-3);}.cls-5{fill:url(#linear-gradient-4);}.cls-6{fill:url(#linear-gradient-5);}.cls-7{fill:url(#linear-gradient-6);}.cls-8{fill:url(#linear-gradient-7);}.cls-9{fill:url(#linear-gradient-8);}.cls-10{fill:url(#linear-gradient-9);}</style><linearGradient id="linear-gradient" x1="88.41" y1="9.2" x2="92.66" y2="9.2" gradientUnits="userSpaceOnUse"><stop offset="0" stop-color="#4fa0ca"/><stop offset="0.31" stop-color="#4e9dc8"/><stop offset="0.5" stop-color="#4a95c1"/><stop offset="0.66" stop-color="#4386b6"/><stop offset="0.8" stop-color="#3972a6"/><stop offset="0.93" stop-color="#2d5791"/><stop offset="1" stop-color="#254684"/></linearGradient><linearGradient id="linear-gradient-2" x1="90.08" y1="5.65" x2="90.29" y2="5.65" gradientUnits="userSpaceOnUse"><stop offset="0" stop-color="#4fa0ca"/><stop offset="0.33" stop-color="#4e9dc9"/><stop offset="0.54" stop-color="#4a95c4"/><stop offset="0.71" stop-color="#4386bd"/><stop offset="0.86" stop-color="#3a72b3"/><stop offset="1" stop-color="#2e58a6"/></linearGradient><linearGradient id="linear-gradient-3" x1="88.83" y1="13.53" x2="83.26" y2="13.53" xlink:href="#linear-gradient"/><linearGradient id="linear-gradient-4" x1="5.89" y1="25.8" x2="5.89" y2="3.45" gradientUnits="userSpaceOnUse"><stop offset="0" stop-color="#4fa0ca"/><stop offset="1" stop-color="#254684"/></linearGradient><linearGradient id="linear-gradient-5" x1="16.12" y1="25.8" x2="16.12" y2="3.45" xlink:href="#linear-gradient-4"/><linearGradient id="linear-gradient-6" x1="26.78" y1="25.8" x2="26.78" y2="3.45" xlink:href="#linear-gradient-4"/><linearGradient id="linear-gradient-7" x1="39.8" y1="25.8" x2="39.8" y2="3.45" xlink:href="#linear-gradient-4"/><linearGradient id="linear-gradient-8" x1="53.06" y1="25.8" x2="53.06" y2="3.45" xlink:href="#linear-gradient-4"/><linearGradient id="linear-gradient-9" x1="1.29" y1="25.79" x2="1.29" y2="3.45" xlink:href="#linear-gradient-4"/></defs><title>ifthenpay_logo_original</title><g id="Layer_2" data-name="Layer 2"><g id="Layer_1-2" data-name="Layer 1"><path class="cls-1" d="M71,12q0,6.49-5,6.49A4.33,4.33,0,0,1,62.5,17v7.1H61.24V5.79H62.5V7.13A4.26,4.26,0,0,1,66,5.52Q71,5.52,71,12Zm-1.26,0a7.87,7.87,0,0,0-.66-3.6A3.21,3.21,0,0,0,66,6.79a3.73,3.73,0,0,0-2.51.89,3,3,0,0,0-1,2.37V14a2.94,2.94,0,0,0,1,2.34,3.73,3.73,0,0,0,2.51.89,3.22,3.22,0,0,0,3.08-1.6A7.87,7.87,0,0,0,69.78,12Z"/><path class="cls-1" d="M82.87,18.23l-1.16.34-.5-1.26a6,6,0,0,1-3.79,1.31,4.93,4.93,0,0,1-3.13-.95A3.43,3.43,0,0,1,73,14.81,3.35,3.35,0,0,1,74.27,12a4.66,4.66,0,0,1,2.95-.92h1.84a2.8,2.8,0,0,0,2.1-.63V9.28a2.11,2.11,0,0,0-1-1.76,3.35,3.35,0,0,0-2-.63q-2.79,0-3.42,2.08L73.58,8.6q1.08-3,4.68-3a4.47,4.47,0,0,1,2.84,1,3.21,3.21,0,0,1,1.31,2.6V17ZM81.16,15.7V11.94a3.74,3.74,0,0,1-1.79.39H77.21a3.34,3.34,0,0,0-2.05.61,2.18,2.18,0,0,0-.89,1.87,2.28,2.28,0,0,0,1,1.95,3.72,3.72,0,0,0,2.18.61A5,5,0,0,0,81.16,15.7Z"/><polygon class="cls-1" points="91.62 7.4 84.17 7.4 84.36 6.15 85.13 5.65 90.64 5.65 91.28 5.87 91.62 7.4"/><path class="cls-2" d="M89.73,10.88a2.89,2.89,0,0,1-1.32,1.87l2.51-.94c.32-.13.5-.56.63-.9,0,0,.57-1.55,1-2.75a1.93,1.93,0,0,0-2-2.51h-.26c.42,0,1.25.21.86,1.35"/><path class="cls-3" d="M90.08,5.65h0Z"/><path class="cls-1" d="M87.06,18.23h1.57l-.93,3.2A4,4,0,0,1,83.9,24s-.6-1.74-.6-1.74h.53c1,0,1.77-.11,2.21-1.28l1-2.76"/><path class="cls-4" d="M88.72,18.62l-1,2.81A3.24,3.24,0,0,0,87.33,19L83.4,8.5c-.31-1.07-.25-3.11,2.36-2.85,0,0-1.59-.19-.93,1.75l3.89,10.44A.77.77,0,0,1,88.72,18.62Z"/><path class="cls-5" d="M11.78,2.66V0A5.37,5.37,0,0,0,7.72,1.33a5.93,5.93,0,0,0-1.3,4.06H2.71v0H0v13H2.71V7.76H6.42v10.6H9V7.76h2.39V5.37H9A3.2,3.2,0,0,1,9.6,3.23,3,3,0,0,1,11.78,2.66Z"/><path class="cls-6" d="M19.09,7.79H17.31v7.15q0,.76.34.76H18.8v2.66H17.65A2.69,2.69,0,0,1,15.2,17a4.06,4.06,0,0,1-.47-2.1V7.79H13.15V5.37h1.58V1.89h2.58V5.37h1.79Z"/><path class="cls-7" d="M32.08,18.36H29.39V11.12a4.43,4.43,0,0,0-.47-2.37,2.48,2.48,0,0,0-2.24-.92A2.32,2.32,0,0,0,24.5,8.92a3.7,3.7,0,0,0-.34.84v8.6H21.48V0h2.68V5.73a5.58,5.58,0,0,1,2.52-.58,5,5,0,0,1,4.5,2.13,7,7,0,0,1,.89,3.84Z"/><path class="cls-8" d="M45.24,13H37.08a3.89,3.89,0,0,0,.53,1.87A3,3,0,0,0,40.27,16,3.57,3.57,0,0,0,43,14.78l2.16,1.61a6.33,6.33,0,0,1-4.87,2.21,5.54,5.54,0,0,1-4.94-2.34,7.71,7.71,0,0,1-1-4.29,7.71,7.71,0,0,1,1-4.29,5.3,5.3,0,0,1,4.71-2.29,5,5,0,0,1,4.39,2.31,5.23,5.23,0,0,1,.76,2.55Q45.26,10.81,45.24,13Zm-2.73-2.6a3.2,3.2,0,0,0-.32-1.26A2.47,2.47,0,0,0,40,8a2.63,2.63,0,0,0-2.87,2.37Z"/><path class="cls-9" d="M58.36,18.36H55.67V11a4.17,4.17,0,0,0-.47-2.29A2.51,2.51,0,0,0,53,7.81a2.34,2.34,0,0,0-2.21,1.08,3.38,3.38,0,0,0-.32.79v8.68H47.76V5.58h2.68V6A5.77,5.77,0,0,1,53,5.39q3.18,0,4.5,1.89A6.56,6.56,0,0,1,58.36,11Z"/><rect class="cls-10" y="1.89" width="2.58" height="2.58"/></g></g></svg>